<?xml version="1.0" encoding="UTF-8"?>
<svg xmlns="http://www.w3.org/2000/svg" xmlns:xlink="http://www.w3.org/1999/xlink" width="375pt" height="374.999991pt" viewBox="0 0 375 374.999991" version="1.2">
<defs>
<clipPath id="clip1">
  <path d="M 74.117188 8.742188 L 286.371094 8.742188 L 286.371094 366.402344 L 74.117188 366.402344 Z M 74.117188 8.742188 "/>
</clipPath>
<clipPath id="clip2">
  <path d="M 146.707031 179.214844 L 286.734375 179.214844 L 286.734375 366.402344 L 146.707031 366.402344 Z M 146.707031 179.214844 "/>
</clipPath>
<clipPath id="clip3">
  <path d="M 146 180 L 286.734375 180 L 286.734375 283.34375 L 146 283.34375 Z M 146 180 "/>
</clipPath>
<clipPath id="clip4">
  <path d="M 74.117188 142 L 286.734375 142 L 286.734375 262 L 74.117188 262 Z M 74.117188 142 "/>
</clipPath>
<clipPath id="clip5">
  <path d="M 74.0625 219 L 276 219 L 276 303 L 74.0625 303 Z M 74.0625 219 "/>
</clipPath>
<clipPath id="clip6">
  <path d="M 74.117188 219 L 146.707031 219 L 146.707031 366.402344 L 74.117188 366.402344 Z M 74.117188 219 "/>
</clipPath>
<clipPath id="clip7">
  <path d="M 132 8.652344 L 199 8.652344 L 199 52 L 132 52 Z M 132 8.652344 "/>
</clipPath>
</defs>
<g id="surface1">
<g clip-path="url(#clip1)" clip-rule="nonzero">
<path style=" stroke:none;fill-rule:nonzero;fill:rgb(73.728943%,25.099182%,45.489502%);fill-opacity:1;" d="M 244.332031 330 C 243.902344 329.445312 243.507812 328.890625 243.136719 328.339844 C 241.820312 326.097656 240.859375 323.238281 240.246094 319.769531 C 240.859375 319.277344 241.394531 318.742188 241.851562 318.15625 C 242.554688 317.386719 242.878906 316.484375 242.816406 315.441406 C 243.125 316.511719 243.414062 317.617188 243.691406 318.753906 C 244.027344 320.257812 244.238281 321.796875 244.332031 323.363281 C 244.578125 327.695312 246.046875 331.351562 248.742188 334.332031 Z M 160.121094 12.640625 L 160.304688 12.457031 C 160.398438 12.457031 160.488281 12.457031 160.582031 12.457031 C 160.398438 12.488281 160.242188 12.550781 160.121094 12.640625 Z M 197.472656 44.433594 C 198.023438 43.328125 198.390625 42.101562 198.574219 40.746094 C 198.59375 40.730469 198.609375 40.695312 198.621094 40.65625 C 198.488281 42.019531 198.105469 43.28125 197.472656 44.433594 Z M 208.496094 142.339844 L 198.851562 147.9375 C 197.847656 147.8125 196.914062 147.808594 196.046875 147.914062 C 195.496094 143.984375 194.914062 141.097656 194.300781 139.253906 C 194.179688 138.640625 194.011719 138.007812 193.796875 137.363281 C 192.90625 134.96875 191.621094 133.140625 189.9375 131.882812 C 190.027344 130.53125 190.074219 127.859375 190.074219 123.863281 C 190.074219 120.578125 190.183594 117.953125 190.398438 115.988281 C 191.714844 118.902344 193.566406 122.066406 195.957031 125.476562 C 196.964844 126.953125 199.171875 129.898438 202.570312 134.324219 L 203.167969 135.152344 C 203.230469 135.210938 203.308594 135.292969 203.398438 135.382812 C 205.507812 138.078125 207.210938 140.398438 208.496094 142.339844 Z M 138.253906 133.863281 C 139.171875 130.175781 139.675781 127.933594 139.765625 127.136719 C 140.320312 128.699219 140.597656 130.621094 140.597656 132.894531 C 140.503906 134.246094 140.394531 136.226562 140.273438 138.835938 C 139.292969 139.546875 138.328125 140.175781 137.378906 140.726562 C 137.289062 138.945312 137.578125 136.65625 138.253906 133.863281 Z M 142.480469 147.453125 C 142.847656 147.820312 143.230469 148.207031 143.628906 148.605469 C 143.136719 148.207031 142.726562 147.820312 142.386719 147.453125 Z M 286.371094 180.214844 L 286.371094 179.753906 L 285.957031 180.121094 L 261.972656 166.136719 L 277.285156 137.546875 C 278.601562 135.027344 277.132812 135.015625 272.84375 137.5 L 242.761719 154.941406 L 222.160156 142.984375 C 217.691406 132.304688 215.285156 126.53125 214.925781 125.664062 C 211.804688 118.503906 208.757812 112.113281 205.789062 106.496094 C 205.574219 106.125 205.355469 105.773438 205.144531 105.433594 L 203.167969 101.746094 C 204.242188 99.566406 204.210938 97.113281 203.078125 94.375 C 202.523438 93.054688 201.148438 90.84375 198.941406 87.742188 C 198.726562 87.125 198.511719 86.5 198.296875 85.851562 C 198.269531 85.640625 198.207031 85.472656 198.113281 85.347656 C 197.105469 81.785156 196.277344 77.714844 195.632812 73.140625 C 195.390625 71.628906 194.871094 66.640625 194.074219 58.164062 C 196.308594 56.132812 197.761719 53.386719 198.4375 49.914062 C 198.527344 49.703125 198.589844 49.472656 198.621094 49.222656 C 198.984375 47.011719 198.804688 44.464844 198.527344 41.578125 C 198.527344 41.238281 199.078125 40.902344 198.160156 40.5625 C 198.160156 40.46875 198.160156 40.410156 198.160156 40.378906 C 199.078125 40.179688 198.421875 39.976562 198.4375 39.777344 C 199.632812 37.921875 200.34375 35.402344 200.34375 32.222656 C 200.34375 26.355469 199.328125 21.84375 197.183594 18.679688 C 193.265625 12.75 185.742188 9.722656 174.566406 9.601562 C 170.613281 8.738281 166.738281 9.585938 162.910156 12.132812 C 162.785156 12.214844 162.671875 12.082031 162.546875 12.15625 C 162.179688 12.015625 161.820312 11.71875 161.453125 11.71875 L 161.40625 11.71875 L 161.730469 11.789062 C 161.085938 10.804688 160.59375 10.21875 160.257812 9.820312 C 159.554688 8.960938 158.773438 8.644531 157.914062 8.765625 C 153.351562 8.765625 149.8125 9.082031 147.304688 9.667969 C 143.382812 10.617188 140.367188 12.402344 138.253906 14.976562 C 137.488281 15.777344 136.875 16.96875 136.414062 18.535156 C 135.710938 20.777344 135.28125 22.054688 135.128906 22.359375 C 133.875 23.804688 133.136719 25.464844 132.921875 27.339844 C 132.707031 28.78125 132.863281 30.5625 133.382812 32.683594 C 133.71875 33.945312 134.273438 35.800781 135.035156 38.257812 C 135.652344 40.441406 135.957031 42.382812 135.957031 43.855469 C 136.355469 43.761719 136.902344 43.972656 137.609375 43.972656 C 137.699219 43.972656 137.808594 43.972656 137.929688 43.972656 L 139.035156 43.902344 C 140.382812 44.121094 141.394531 44.042969 142.0625 43.800781 C 143.65625 41.800781 145.480469 40.285156 147.535156 39.300781 C 147.59375 39.488281 147.625 39.625 147.625 39.746094 C 147.71875 39.839844 147.765625 39.894531 147.765625 39.925781 L 148.726562 42.363281 C 148.726562 42.425781 148.742188 42.527344 148.773438 42.683594 C 149.109375 43.421875 149.433594 44.09375 149.738281 44.710938 C 150.71875 46.644531 151.835938 48.210938 153.089844 49.410156 C 149.753906 52.359375 145.925781 55.414062 141.605469 58.578125 L 136.414062 63.1875 C 135.921875 63.707031 135.421875 64.246094 134.898438 64.796875 C 133.246094 66.949219 131.804688 68.730469 130.578125 70.144531 C 130.03125 70.847656 129.570312 71.460938 129.199219 71.988281 C 128.191406 73.09375 127.46875 74.378906 127.042969 75.855469 C 126.585938 77.265625 126.355469 78.773438 126.355469 80.371094 C 125.160156 83.257812 124.5625 87.3125 124.5625 92.53125 C 124.46875 93.914062 124.421875 95.972656 124.421875 98.710938 C 124.421875 101.074219 124.253906 103.101562 123.917969 104.789062 C 123.550781 106.785156 123.199219 110.164062 122.863281 114.925781 C 122.558594 119.289062 122.171875 122.695312 121.714844 125.15625 C 121.621094 126.75 121.363281 128.71875 120.929688 131.050781 C 120.6875 132.371094 120.304688 134.324219 119.78125 136.902344 C 118.863281 141.789062 118.726562 145.78125 119.371094 148.882812 C 120.503906 150.386719 122.234375 152.199219 124.195312 154.320312 C 127.011719 157.328125 128.328125 159.109375 129.246094 159.664062 C 129.246094 159.757812 129.246094 159.863281 129.246094 159.988281 C 128.328125 164.5 128.550781 169.046875 129.316406 173.621094 C 129.410156 173.839844 129.246094 174.023438 129.246094 174.175781 L 129.246094 174.3125 C 130.167969 176.128906 130.210938 177.925781 130.761719 179.707031 C 131.375 181.734375 132.15625 183.683594 133.015625 185.558594 C 133.070312 185.679688 133.144531 185.804688 133.199219 185.925781 L 74.679688 219.742188 L 74.117188 219.421875 L 74.117188 219.652344 L 74.117188 219.511719 L 74.117188 324.703125 L 146.707031 366.488281 L 146.707031 366.398438 L 216.605469 325.875 C 217.941406 328.417969 219.128906 330.714844 220.167969 332.765625 C 223.628906 339.367188 225.605469 343.222656 226.09375 344.324219 C 227.257812 346.90625 229.125 348.71875 231.699219 349.765625 C 238.867188 352.773438 246.125 353.078125 253.472656 350.6875 C 254.578125 350.347656 255.375 349.5625 255.863281 348.335938 C 256.171875 347.660156 256.324219 346.953125 256.324219 346.214844 C 256.230469 342.652344 254.824219 339.644531 252.097656 337.183594 C 251.332031 336.480469 250.5625 335.800781 249.800781 335.15625 C 253.871094 338.320312 258.453125 339.921875 263.535156 339.949219 C 265.28125 339.980469 266.828125 339.398438 268.175781 338.199219 C 269.984375 336.480469 270.6875 334.332031 270.289062 331.75 C 269.800781 328.429688 268.667969 325.375 266.890625 322.582031 C 264.929688 319.691406 262.96875 316.925781 261.007812 314.289062 C 259.109375 311.734375 257.304688 309.160156 255.589844 306.546875 C 255.507812 305.800781 255.234375 304.804688 255.035156 303.550781 L 286.371094 285.308594 L 286.371094 180.121094 L 286.371094 180.214844 "/>
</g>
<g clip-path="url(#clip2)" clip-rule="nonzero">
<path style=" stroke:none;fill-rule:evenodd;fill:rgb(81.568909%,85.879517%,85.879517%);fill-opacity:1;" d="M 228.484375 237.710938 L 229.609375 244.460938 L 227.746094 245.542969 C 227.824219 242.992188 227.960938 240.65625 228.160156 238.542969 C 228.28125 238.296875 228.390625 238.019531 228.484375 237.710938 Z M 230.527344 280.332031 L 237.191406 276.507812 C 237.28125 277.136719 237.367188 277.75 237.441406 278.351562 C 237.636719 280.179688 237.738281 281.878906 237.765625 283.441406 L 231.8125 286.875 C 231.652344 286.277344 231.523438 285.707031 231.421875 285.167969 C 231.175781 283.972656 230.875 282.359375 230.527344 280.332031 Z M 228.136719 264.804688 C 228.085938 264.460938 228.03125 264.105469 227.976562 263.742188 C 227.863281 259.828125 227.78125 256.816406 227.726562 254.710938 L 231.5625 252.503906 C 231.855469 254.089844 232.226562 255.792969 232.664062 257.617188 C 232.9375 258.667969 233.289062 259.996094 233.71875 261.601562 Z M 146.707031 283.003906 L 203.671875 250.0625 C 203.671875 250.652344 203.691406 251.253906 203.71875 251.859375 C 203.902344 256.21875 204.640625 260.363281 205.925781 264.296875 C 207.730469 268.28125 209.28125 271.820312 210.566406 274.917969 L 193.152344 284.9375 C 191.132812 286.105469 189.402344 287.933594 187.960938 290.417969 C 186.554688 292.878906 185.847656 295.273438 185.847656 297.609375 C 185.847656 299.945312 186.554688 301.523438 187.960938 302.355469 C 189.402344 303.183594 191.132812 303.015625 193.152344 301.847656 L 215.917969 288.738281 C 217.160156 292.285156 218.195312 295.65625 219.019531 298.851562 C 215.007812 301.433594 212.511719 304.949219 211.53125 309.402344 C 211.253906 310.632812 211.269531 311.890625 211.578125 313.183594 C 212.160156 315.300781 212.726562 317.433594 213.273438 319.585938 C 214.476562 321.832031 215.585938 323.925781 216.605469 325.875 L 146.707031 366.398438 Z M 255.496094 220.066406 L 286.644531 202.050781 L 286.644531 285.308594 L 255.175781 303.550781 C 254.992188 302.417969 254.761719 301.082031 254.488281 299.542969 C 254.363281 298.90625 254.257812 298.300781 254.164062 297.722656 L 267.441406 290.050781 C 268.546875 289.40625 269.480469 288.40625 270.242188 287.058594 C 270.980469 285.738281 271.34375 284.445312 271.34375 283.1875 C 271.34375 281.929688 270.980469 281.054688 270.242188 280.5625 C 269.480469 280.132812 268.546875 280.242188 267.441406 280.882812 L 252.898438 289.269531 C 252.699219 287.671875 252.542969 285.96875 252.441406 284.15625 L 267.441406 275.492188 C 268.546875 274.847656 269.480469 273.847656 270.242188 272.496094 C 270.980469 271.175781 271.34375 269.886719 271.34375 268.628906 C 271.34375 267.367188 270.980469 266.492188 270.242188 266 C 269.480469 265.570312 268.546875 265.679688 267.441406 266.324219 L 252.394531 275.011719 C 252.421875 274.128906 252.457031 273.230469 252.507812 272.3125 C 252.644531 270.535156 252.761719 268.921875 252.855469 267.476562 L 268.316406 258.585938 C 270.335938 257.414062 272.050781 255.605469 273.460938 253.148438 C 274.898438 250.660156 275.621094 248.246094 275.621094 245.914062 C 275.621094 243.613281 274.898438 242.042969 273.460938 241.214844 C 272.050781 240.386719 270.335938 240.550781 268.316406 241.722656 L 253.589844 250.175781 C 253.710938 247.96875 253.78125 244.472656 253.796875 239.695312 L 267.441406 231.816406 C 268.546875 231.171875 269.480469 230.171875 270.242188 228.820312 C 270.980469 227.5 271.34375 226.207031 271.34375 224.953125 C 271.34375 223.691406 270.980469 222.8125 270.242188 222.324219 C 269.480469 221.890625 268.546875 222 267.441406 222.648438 L 254.003906 230.386719 C 254.1875 227.476562 254.5 224.941406 254.945312 222.785156 C 255.15625 221.863281 255.339844 220.957031 255.496094 220.066406 Z M 286.464844 180.351562 L 286.09375 180.121094 L 286.644531 179.753906 L 286.644531 180.214844 L 286.464844 180.351562 "/>
</g>
<g clip-path="url(#clip3)" clip-rule="nonzero">
<path style=" stroke:none;fill-rule:evenodd;fill:rgb(88.62915%,22.749329%,0%);fill-opacity:1;" d="M 230.226562 212.855469 C 231.589844 213.5 232.339844 214.460938 232.480469 215.738281 C 231.253906 217.332031 230.304688 219.085938 229.632812 220.988281 C 229.199219 219.941406 228.683594 218.929688 228.070312 217.945312 C 227.507812 217.015625 226.886719 216.09375 226.207031 215.183594 Z M 203.671875 250.0625 L 146.707031 283.003906 L 146.339844 283.1875 L 146.339844 261.351562 L 203.949219 228.0625 C 205.714844 229.074219 207.324219 230.09375 208.773438 231.125 C 208.558594 232.074219 207.835938 233.410156 206.613281 235.132812 C 205.511719 236.730469 204.902344 238.082031 204.777344 239.1875 C 203.984375 242.75 203.621094 246.375 203.671875 250.0625 Z M 286.644531 202.050781 L 255.496094 220.066406 C 256.292969 215.664062 256.460938 211.625 256 207.949219 C 255.628906 204.757812 254.808594 201.902344 253.542969 199.378906 L 286.464844 180.351562 L 286.644531 180.214844 L 286.734375 180.121094 L 286.734375 201.957031 L 286.644531 202.050781 "/>
</g>
<g clip-path="url(#clip4)" clip-rule="nonzero">
<path style=" stroke:none;fill-rule:evenodd;fill:rgb(100%,30.979919%,6.669617%);fill-opacity:1;" d="M 162.738281 195.003906 C 162.738281 194.476562 162.785156 193.988281 162.878906 193.527344 C 162.90625 193.191406 162.96875 192.835938 163.0625 192.46875 C 162.90625 193.265625 162.800781 194.109375 162.738281 195.003906 Z M 230.226562 212.855469 L 226.207031 215.183594 C 225.34375 214.015625 224.382812 212.863281 223.335938 211.726562 C 224.042969 211.726562 224.699219 211.757812 225.3125 211.820312 C 227.335938 212.03125 228.820312 212.308594 229.765625 212.648438 C 229.933594 212.714844 230.085938 212.78125 230.226562 212.855469 Z M 203.949219 228.0625 L 146.339844 261.351562 L 74.714844 219.789062 L 74.851562 219.742188 L 133.21875 185.925781 C 134.507812 188.765625 136.0625 191.421875 137.886719 193.894531 C 137.914062 194.015625 137.976562 194.171875 138.070312 194.355469 C 138.160156 194.386719 138.207031 194.449219 138.207031 194.542969 C 138.328125 194.632812 138.4375 194.742188 138.527344 194.863281 C 138.558594 194.984375 138.617188 195.09375 138.710938 195.1875 C 138.773438 195.25 138.804688 195.324219 138.804688 195.417969 C 138.867188 195.417969 138.894531 195.445312 138.894531 195.507812 C 139.476562 196.214844 139.996094 196.847656 140.457031 197.398438 C 144.839844 201.820312 148.773438 205.339844 152.265625 207.949219 C 156.796875 211.390625 161.359375 213.800781 165.953125 215.183594 C 167.453125 216.164062 169.15625 216.484375 171.054688 216.152344 C 172.617188 215.875 174.148438 215.136719 175.648438 213.9375 C 178.101562 214.828125 181.316406 216.335938 185.296875 218.453125 C 185.511719 218.542969 185.726562 218.652344 185.9375 218.773438 C 186.066406 218.867188 186.167969 218.929688 186.261719 218.960938 C 187.945312 219.820312 189.417969 220.605469 190.671875 221.308594 C 193.058594 222.570312 194.851562 223.476562 196.046875 224.03125 C 198.964844 225.359375 201.59375 226.699219 203.949219 228.0625 Z M 241.441406 185.1875 L 250.121094 180.167969 C 254.378906 177.707031 257.167969 175.253906 258.480469 172.792969 L 262.042969 166.136719 L 286.09375 180.121094 L 286.464844 180.351562 L 253.542969 199.378906 C 252.636719 197.546875 251.496094 195.886719 250.121094 194.402344 C 248.652344 193.296875 247.332031 192.191406 246.171875 191.085938 C 244.730469 189.613281 243.507812 188.167969 242.496094 186.753906 C 242.15625 186.265625 241.804688 185.742188 241.441406 185.1875 Z M 225.128906 150.082031 C 224.054688 147.511719 223.066406 145.144531 222.164062 142.984375 L 242.769531 154.941406 L 238.128906 157.636719 C 236.660156 156.714844 234.839844 155.714844 232.664062 154.640625 C 228.957031 152.828125 226.445312 151.308594 225.128906 150.082031 Z M 213.78125 153.121094 C 212.523438 152.875 211.070312 152.398438 209.417969 151.695312 C 207.429688 150.773438 205.984375 150.109375 205.097656 149.710938 C 202.78125 148.738281 200.699219 148.144531 198.851562 147.9375 L 208.496094 142.339844 C 208.710938 142.660156 208.90625 142.964844 209.09375 143.261719 C 211.179688 146.609375 212.738281 149.894531 213.78125 153.121094 "/>
</g>
<path style=" stroke:none;fill-rule:evenodd;fill:rgb(0%,24.308777%,27.449036%);fill-opacity:1;" d="M 254.164062 297.722656 C 253.800781 295.6875 253.570312 294.015625 253.472656 292.722656 C 253.253906 291.636719 253.066406 290.484375 252.898438 289.269531 L 267.441406 280.882812 C 268.546875 280.242188 269.480469 280.132812 270.242188 280.5625 C 270.980469 281.054688 271.34375 281.929688 271.34375 283.1875 C 271.34375 284.445312 270.980469 285.738281 270.242188 287.058594 C 269.480469 288.40625 268.546875 289.40625 267.441406 290.050781 Z M 254.003906 230.386719 L 267.441406 222.648438 C 268.546875 222 269.480469 221.890625 270.242188 222.324219 C 270.980469 222.8125 271.34375 223.691406 271.34375 224.953125 C 271.34375 226.207031 270.980469 227.5 270.242188 228.820312 C 269.480469 230.171875 268.546875 231.171875 267.441406 231.816406 L 253.796875 239.695312 C 253.796875 238.941406 253.796875 238.160156 253.796875 237.34375 C 253.796875 234.828125 253.867188 232.507812 254.003906 230.386719 Z M 252.441406 284.15625 C 252.390625 283.304688 252.355469 282.429688 252.324219 281.527344 C 252.28125 279.484375 252.304688 277.308594 252.394531 275.011719 L 267.441406 266.324219 C 268.546875 265.679688 269.480469 265.570312 270.242188 266 C 270.980469 266.492188 271.34375 267.367188 271.34375 268.628906 C 271.34375 269.886719 270.980469 271.175781 270.242188 272.496094 C 269.480469 273.847656 268.546875 274.847656 267.441406 275.492188 Z M 231.5625 252.503906 L 227.726562 254.710938 C 227.679688 252.765625 227.65625 251.597656 227.65625 251.214844 C 227.65625 249.214844 227.6875 247.328125 227.746094 245.542969 L 229.609375 244.460938 L 229.632812 244.578125 C 229.722656 244.886719 229.8125 245.175781 229.90625 245.453125 L 230.089844 246.1875 C 230.335938 246.960938 230.609375 247.757812 230.917969 248.585938 C 231.074219 249.800781 231.289062 251.101562 231.5625 252.503906 Z M 237.765625 284.707031 L 231.929688 287.335938 C 231.886719 287.179688 231.84375 287.023438 231.8125 286.875 L 237.765625 283.441406 C 237.769531 283.871094 237.769531 284.296875 237.765625 284.707031 "/>
<g clip-path="url(#clip5)" clip-rule="nonzero">
<path style=" stroke:none;fill-rule:evenodd;fill:rgb(77.249146%,19.999695%,0%);fill-opacity:1;" d="M 253.589844 250.175781 L 268.316406 241.722656 C 270.335938 240.550781 272.050781 240.386719 273.460938 241.214844 C 274.898438 242.042969 275.621094 243.613281 275.621094 245.914062 C 275.621094 248.246094 274.898438 250.660156 273.460938 253.148438 C 272.050781 255.605469 270.335938 257.414062 268.316406 258.585938 L 252.855469 267.476562 C 253 265.292969 253.097656 263.496094 253.15625 262.085938 C 253.460938 258.058594 253.566406 254.652344 253.472656 251.859375 C 253.519531 251.417969 253.558594 250.859375 253.589844 250.175781 Z M 230.527344 280.332031 C 229.894531 276.578125 229.097656 271.40625 228.136719 264.804688 L 233.71875 261.601562 C 234.117188 263.046875 234.578125 264.707031 235.097656 266.601562 C 236.03125 270.265625 236.726562 273.566406 237.191406 276.507812 Z M 215.917969 288.738281 L 193.152344 301.847656 C 191.132812 303.015625 189.402344 303.183594 187.960938 302.355469 C 186.554688 301.523438 185.847656 299.945312 185.847656 297.609375 C 185.847656 295.273438 186.554688 292.878906 187.960938 290.417969 C 189.402344 287.933594 191.132812 286.105469 193.152344 284.9375 L 210.566406 274.917969 C 211.582031 277.332031 212.4375 279.472656 213.136719 281.34375 C 214.160156 283.890625 215.085938 286.355469 215.917969 288.738281 Z M 74.714844 219.789062 L 146.339844 261.351562 L 146.339844 283.1875 L 74.441406 241.582031 L 74.117188 241.351562 L 74.117188 219.511719 L 74.441406 219.652344 L 74.714844 219.789062 "/>
</g>
<g clip-path="url(#clip6)" clip-rule="nonzero">
<path style=" stroke:none;fill-rule:evenodd;fill:rgb(71.759033%,77.249146%,77.249146%);fill-opacity:1;" d="M 74.714844 219.789062 L 74.441406 219.652344 L 74.441406 219.421875 L 74.851562 219.742188 Z M 146.707031 283.003906 L 146.707031 366.488281 L 74.441406 324.703125 L 74.441406 241.582031 L 146.339844 283.1875 L 146.707031 283.003906 "/>
</g>
<path style=" stroke:none;fill-rule:evenodd;fill:rgb(92.939758%,59.609985%,43.919373%);fill-opacity:1;" d="M 160.949219 76.363281 C 157.515625 76.332031 153.886719 75.777344 150.0625 74.703125 C 148.375 74.273438 146.78125 73.492188 145.28125 72.355469 C 143.839844 71.308594 142.664062 70.019531 141.746094 68.484375 C 140.058594 65.6875 139.738281 62.96875 140.78125 60.328125 C 140.871094 60.300781 140.976562 60.28125 141.101562 60.28125 C 143.429688 59.296875 145.988281 58.808594 148.773438 58.808594 C 153.828125 58.808594 157.441406 61.128906 159.617188 65.765625 C 160.839844 68.34375 161.453125 70.972656 161.453125 73.644531 C 161.453125 74.257812 161.332031 75.058594 161.085938 76.039062 C 160.992188 76.222656 160.949219 76.332031 160.949219 76.363281 Z M 219.019531 299.035156 C 220.15625 301.507812 221.472656 305.035156 222.96875 309.613281 C 223.167969 310.195312 223.367188 310.804688 223.566406 311.429688 C 223.707031 311.902344 223.945312 312.707031 224.28125 313.847656 C 224.714844 315.40625 225.320312 317.589844 226.09375 320.394531 C 226.351562 321.3125 226.625 322.300781 226.921875 323.363281 C 227.535156 324.777344 228.175781 326.035156 228.847656 327.140625 L 226.320312 328.753906 C 225.476562 326.402344 224.605469 324.078125 223.707031 321.773438 C 222.25 318.042969 220.71875 314.363281 219.109375 310.738281 C 217.457031 306.964844 217.425781 303.0625 219.019531 299.035156 Z M 252.898438 289.269531 C 253.066406 290.484375 253.253906 291.636719 253.472656 292.722656 C 253.570312 294.015625 253.800781 295.6875 254.164062 297.722656 C 254.257812 298.300781 254.363281 298.90625 254.488281 299.542969 C 254.761719 301.082031 254.992188 302.417969 255.175781 303.550781 C 255.371094 304.804688 255.507812 305.800781 255.589844 306.546875 L 250.71875 314.472656 C 249.292969 312.054688 248.078125 309.976562 247.066406 308.230469 C 246.542969 307.316406 246.078125 306.496094 245.664062 305.765625 C 245.207031 304.9375 244.777344 304.136719 244.378906 303.367188 C 242.933594 300.589844 241.84375 298.164062 241.117188 296.089844 C 240.859375 295.367188 240.644531 294.691406 240.472656 294.0625 C 240.25 293.328125 240.054688 292.433594 239.898438 291.386719 C 239.769531 290.453125 239.671875 289.390625 239.601562 288.210938 C 239.480469 286.613281 239.371094 285.335938 239.277344 284.386719 C 247.546875 286.65625 251.898438 285.703125 252.324219 281.527344 C 252.355469 282.429688 252.390625 283.304688 252.441406 284.15625 C 252.542969 285.96875 252.699219 287.671875 252.898438 289.269531 Z M 171.925781 57.332031 C 171.816406 57.234375 171.699219 57.136719 171.582031 57.035156 C 173.980469 56.714844 175.765625 56.351562 176.933594 55.949219 C 179.171875 55.183594 180.886719 54 182.082031 52.40625 L 182.265625 52.082031 C 186.953125 51.222656 190.457031 50.164062 192.785156 48.902344 L 197.472656 44.433594 C 198.105469 43.28125 198.488281 42.019531 198.621094 40.65625 L 198.621094 40.5625 C 198.714844 40.902344 198.757812 41.238281 198.757812 41.578125 C 199.03125 44.464844 198.984375 47.011719 198.621094 49.222656 C 197.824219 49.839844 196.890625 50.496094 195.816406 51.207031 C 189.566406 55.414062 182.175781 57.515625 173.628906 57.515625 C 173.046875 57.515625 172.484375 57.457031 171.925781 57.332031 "/>
<g clip-path="url(#clip7)" clip-rule="nonzero">
<path style=" stroke:none;fill-rule:evenodd;fill:rgb(44.309998%,23.919678%,13.328552%);fill-opacity:1;" d="M 161.40625 12.132812 C 161.191406 12.167969 160.980469 12.226562 160.765625 12.320312 L 160.582031 12.457031 C 160.0625 11.105469 158.941406 10.460938 157.226562 10.523438 C 154.804688 10.675781 152.144531 11.984375 149.230469 14.4375 C 141.484375 20.921875 137.609375 29.84375 137.609375 41.207031 C 137.609375 41.238281 137.609375 42.082031 137.609375 43.742188 C 136.902344 43.652344 136.355469 43.652344 135.957031 43.742188 C 135.957031 42.269531 135.652344 40.441406 135.035156 38.257812 C 134.273438 35.800781 133.71875 33.945312 133.382812 32.683594 C 132.863281 30.5625 132.707031 28.78125 132.921875 27.339844 C 133.136719 25.46875 133.875 23.808594 135.128906 22.363281 C 135.28125 22.058594 135.710938 20.78125 136.414062 18.542969 C 136.875 16.972656 137.488281 15.792969 138.253906 14.992188 C 140.367188 12.410156 143.382812 10.644531 147.304688 9.695312 C 149.8125 9.109375 153.351562 8.820312 157.914062 8.820312 C 158.773438 8.695312 159.554688 9.0625 160.257812 9.925781 C 160.59375 10.324219 161.085938 11.015625 161.730469 11.996094 Z M 158.5625 51.484375 C 156.597656 51.484375 154.777344 50.792969 153.089844 49.410156 C 151.835938 48.210938 150.71875 46.644531 149.738281 44.710938 C 149.433594 44.09375 149.109375 43.421875 148.773438 42.683594 C 149.109375 42.039062 149.324219 41.328125 149.414062 40.5625 C 149.203125 37.246094 149.308594 34.820312 149.738281 33.285156 C 150.023438 32.300781 150.421875 31.273438 150.933594 30.195312 C 151.378906 33.457031 153.296875 36.40625 156.699219 39.042969 C 157.160156 41.003906 157.71875 43.367188 158.375 46.140625 C 158.773438 47.425781 159.21875 48.578125 159.710938 49.59375 C 159.371094 49.683594 158.988281 49.761719 158.5625 49.824219 C 158.5625 50.375 158.5625 50.929688 158.5625 51.484375 Z M 198.621094 40.65625 C 198.609375 40.695312 198.59375 40.730469 198.574219 40.746094 C 198.132812 41.007812 197.6875 41.25 197.242188 41.484375 C 197.355469 41.398438 197.464844 41.308594 197.566406 41.207031 C 197.78125 40.960938 197.960938 40.734375 198.113281 40.515625 C 198.308594 40.28125 198.492188 40.039062 198.667969 39.777344 C 198.652344 39.976562 198.636719 40.179688 198.621094 40.378906 C 198.621094 40.410156 198.621094 40.46875 198.621094 40.5625 L 198.621094 40.65625 "/>
</g>
<path style=" stroke:none;fill-rule:evenodd;fill:rgb(100%,66.668701%,51.368713%);fill-opacity:1;" d="M 165.796875 53.511719 C 165.480469 53.738281 165.195312 54.121094 164.945312 54.664062 C 164.761719 54.96875 164.488281 55.292969 164.117188 55.628906 C 163.691406 55.996094 163.121094 56.398438 162.417969 56.824219 C 162.386719 56.824219 162.339844 56.859375 162.277344 56.917969 C 162.277344 56.949219 162.265625 56.964844 162.234375 56.964844 C 161.828125 57.21875 161.496094 57.476562 161.246094 57.746094 C 160.179688 55.769531 159.285156 53.679688 158.5625 51.484375 C 158.5625 50.929688 158.5625 50.375 158.5625 49.824219 C 158.988281 49.761719 159.371094 49.683594 159.710938 49.59375 C 160.628906 49.5625 161.46875 49.746094 162.234375 50.144531 C 163.0625 50.578125 163.949219 51.34375 164.898438 52.449219 L 165.453125 53.097656 C 165.550781 53.226562 165.667969 53.363281 165.796875 53.511719 Z M 235.097656 299.773438 C 235.433594 300.785156 235.804688 301.816406 236.199219 302.859375 C 236.742188 304.304688 237.234375 305.753906 237.671875 307.214844 C 238.234375 309.074219 238.714844 310.945312 239.117188 312.835938 C 239.609375 315.125 239.984375 317.433594 240.246094 319.769531 L 228.847656 327.140625 C 228.175781 326.035156 227.535156 324.777344 226.921875 323.363281 C 226.625 322.300781 226.351562 321.3125 226.09375 320.394531 C 225.320312 317.589844 224.714844 315.40625 224.28125 313.847656 C 223.945312 312.707031 223.707031 311.902344 223.566406 311.429688 C 223.367188 310.804688 223.167969 310.195312 222.96875 309.613281 C 221.472656 305.035156 220.15625 301.507812 219.019531 299.035156 C 223.230469 301.761719 226.851562 302.929688 229.882812 302.539062 C 231.878906 302.289062 233.613281 301.371094 235.097656 299.773438 Z M 192.925781 197.859375 C 193.261719 198.535156 193.492188 199.226562 193.613281 199.929688 C 192.355469 200.148438 191.195312 199.898438 190.121094 199.195312 C 189.445312 198.644531 188.648438 197.703125 187.730469 196.386719 C 186.875 195.0625 186.230469 194.171875 185.804688 193.710938 C 185.648438 193.40625 185.527344 193.238281 185.433594 193.203125 C 184.457031 192.066406 183.445312 191.332031 182.402344 190.992188 C 182.527344 191.269531 182.695312 191.578125 182.90625 191.914062 C 183.121094 192.253906 183.398438 192.636719 183.734375 193.066406 L 184.285156 193.710938 C 184.714844 194.171875 185.375 194.800781 186.261719 195.601562 C 186.382812 195.753906 186.539062 195.90625 186.722656 196.0625 C 187.976562 197.382812 188.820312 198.671875 189.25 199.929688 C 189.28125 200.148438 189.296875 200.40625 189.296875 200.714844 L 189.429688 201.726562 C 187.621094 201.207031 185.40625 199.714844 182.769531 197.261719 C 180.195312 194.679688 178.007812 193.175781 176.203125 192.742188 C 176.601562 193.605469 177.269531 194.496094 178.222656 195.417969 C 178.375 195.628906 179.214844 196.339844 180.75 197.539062 C 182.832031 199.347656 184.011719 201.082031 184.285156 202.742188 C 182.695312 202.710938 181.039062 202.039062 179.324219 200.714844 C 177.425781 199.058594 176 197.84375 175.054688 197.078125 C 174.285156 196.402344 172.464844 194.957031 169.582031 192.742188 C 167.898438 191.484375 166.523438 190.363281 165.453125 189.382812 C 164.992188 189.289062 164.515625 189.246094 164.027344 189.246094 C 164.089844 189.089844 164.175781 188.90625 164.304688 188.691406 C 164.304688 188.597656 164.347656 188.488281 164.441406 188.367188 L 167.886719 177.539062 C 171.039062 179.136719 173.886719 179.9375 176.429688 179.9375 C 177.226562 179.9375 177.839844 179.8125 178.269531 179.570312 C 178.453125 179.570312 178.605469 179.582031 178.726562 179.613281 C 180.992188 179.671875 183.230469 180.132812 185.433594 180.996094 C 186.292969 181.332031 187.164062 181.71875 188.054688 182.144531 C 190.871094 183.621094 193.429688 185.585938 195.726562 188.046875 L 193.289062 189.566406 C 194.363281 191.652344 194.914062 192.757812 194.945312 192.882812 C 195.527344 194.109375 195.679688 195.292969 195.402344 196.429688 C 193.964844 196.03125 192.464844 194.800781 190.902344 192.742188 C 189.214844 190.410156 187.824219 188.96875 186.722656 188.414062 C 187.457031 189.707031 188.769531 191.53125 190.671875 193.894531 C 191.652344 195.25 192.402344 196.570312 192.925781 197.859375 Z M 238.128906 157.636719 L 235.421875 159.15625 C 233.886719 160.109375 232.554688 161.03125 231.421875 161.921875 L 227.65625 159.664062 C 225.847656 158.621094 222.785156 159.324219 218.46875 161.785156 L 216.632812 162.9375 C 215.773438 161.492188 215.265625 159.921875 215.113281 158.234375 C 214.992188 157.714844 214.820312 157.070312 214.605469 156.300781 C 214.515625 156.175781 214.46875 156.054688 214.46875 155.929688 L 214.421875 155.699219 C 214.089844 154.378906 213.875 153.519531 213.78125 153.121094 L 225.128906 150.082031 C 226.445312 151.308594 228.957031 152.828125 232.664062 154.640625 C 234.839844 155.714844 236.660156 156.714844 238.128906 157.636719 Z M 194.074219 58.164062 C 193.308594 58.808594 192.832031 59.730469 192.648438 60.929688 C 192.636719 61.085938 192.628906 61.285156 192.625 61.527344 C 192.394531 61.433594 192.125 61.390625 191.820312 61.390625 C 190.964844 61.390625 190.183594 61.621094 189.476562 62.082031 C 188.835938 62.507812 188.28125 62.726562 187.824219 62.726562 C 182.527344 62.726562 179.066406 62.355469 177.441406 61.621094 C 176.539062 61.203125 174.703125 59.773438 171.925781 57.332031 C 172.484375 57.457031 173.046875 57.515625 173.628906 57.515625 C 182.175781 57.515625 189.566406 55.414062 195.816406 51.207031 C 196.890625 50.496094 197.824219 49.839844 198.621094 49.222656 C 198.589844 49.472656 198.527344 49.703125 198.4375 49.914062 C 197.761719 53.386719 196.308594 56.132812 194.074219 58.164062 "/>
<path style=" stroke:none;fill-rule:evenodd;fill:rgb(2.349854%,64.709473%,70.588684%);fill-opacity:1;" d="M 182.90625 191.914062 L 185.804688 193.710938 C 186.230469 194.171875 186.875 195.0625 187.730469 196.386719 C 188.648438 197.703125 189.445312 198.644531 190.121094 199.195312 C 191.195312 199.898438 192.355469 200.148438 193.613281 199.929688 C 193.492188 199.226562 193.261719 198.535156 192.925781 197.859375 L 203.492188 203.941406 C 204.777344 204.707031 206.660156 204.570312 209.140625 203.527344 C 209.875 203.3125 210.929688 202.820312 212.308594 202.050781 C 214.179688 203.433594 215.726562 204.613281 216.949219 205.601562 C 215.820312 206.457031 214.484375 207.242188 212.957031 207.949219 C 212.097656 208.285156 211.207031 208.625 210.289062 208.960938 C 209.308594 209.269531 208.269531 209.546875 207.167969 209.789062 C 206.550781 209.976562 203.308594 210.621094 197.425781 211.726562 C 194.207031 212.339844 192.34375 213.015625 191.820312 213.753906 C 191.546875 214 191.160156 216.519531 190.671875 221.308594 C 189.417969 220.605469 187.945312 219.820312 186.261719 218.960938 C 186.167969 218.929688 186.066406 218.867188 185.9375 218.773438 C 185.726562 218.652344 185.511719 218.542969 185.296875 218.453125 C 181.316406 216.335938 178.101562 214.828125 175.648438 213.9375 C 173.507812 212.863281 171.898438 212.050781 170.824219 211.496094 C 168.925781 210.574219 167.394531 209.667969 166.230469 208.777344 C 164.117188 205.980469 162.90625 202.679688 162.601562 198.875 L 162.601562 198.734375 C 162.601562 198.304688 162.601562 197.917969 162.601562 197.582031 C 162.570312 197.457031 162.570312 197.351562 162.601562 197.261719 C 162.570312 196.492188 162.617188 195.738281 162.738281 195.003906 C 162.800781 194.109375 162.90625 193.265625 163.0625 192.46875 L 163.382812 191.40625 C 163.535156 190.703125 163.75 189.980469 164.027344 189.246094 C 164.515625 189.246094 164.992188 189.289062 165.453125 189.382812 C 166.523438 190.363281 167.898438 191.484375 169.582031 192.742188 C 172.464844 194.957031 174.285156 196.402344 175.054688 197.078125 C 176 197.84375 177.425781 199.058594 179.324219 200.714844 C 181.039062 202.039062 182.695312 202.710938 184.285156 202.742188 C 184.011719 201.082031 182.832031 199.347656 180.75 197.539062 C 179.214844 196.339844 178.375 195.628906 178.222656 195.417969 C 177.269531 194.496094 176.601562 193.605469 176.203125 192.742188 C 178.007812 193.175781 180.195312 194.679688 182.769531 197.261719 C 185.40625 199.714844 187.621094 201.207031 189.429688 201.726562 L 189.296875 200.714844 C 189.296875 200.40625 189.28125 200.148438 189.25 199.929688 C 188.820312 198.671875 187.976562 197.382812 186.722656 196.0625 C 186.539062 195.90625 186.382812 195.753906 186.261719 195.601562 C 185.375 194.800781 184.714844 194.171875 184.285156 193.710938 L 183.734375 193.066406 C 183.398438 192.636719 183.121094 192.253906 182.90625 191.914062 Z M 185.433594 180.996094 C 183.230469 180.132812 180.992188 179.671875 178.726562 179.613281 C 178.605469 179.582031 178.453125 179.570312 178.269531 179.570312 C 177.839844 179.8125 177.226562 179.9375 176.429688 179.9375 C 173.886719 179.9375 171.039062 179.136719 167.886719 177.539062 C 165.066406 176.089844 162 173.980469 158.675781 171.203125 C 155.230469 168.324219 151.515625 164.738281 147.535156 160.449219 C 143.152344 155.746094 139.246094 151.03125 135.820312 146.300781 C 132.632812 141.910156 131.039062 139.191406 131.039062 138.144531 C 131.039062 136.671875 131.253906 135.246094 131.683594 133.863281 C 131.683594 118.566406 136.199219 106.417969 145.238281 97.417969 C 147.347656 95.390625 149.339844 93.933594 151.210938 93.039062 C 151.484375 93.59375 151.730469 94.179688 151.941406 94.792969 L 152.128906 95.253906 C 152.28125 95.683594 152.433594 96.128906 152.589844 96.589844 L 152.589844 96.726562 C 152.679688 96.757812 152.722656 96.867188 152.722656 97.050781 C 153.304688 99.539062 152.480469 101.609375 150.246094 103.269531 C 148.222656 104.621094 145.878906 105.296875 143.214844 105.296875 C 142.109375 110.949219 140.960938 118.226562 139.765625 127.136719 C 139.675781 127.933594 139.171875 130.175781 138.253906 133.863281 C 137.578125 136.65625 137.289062 138.945312 137.378906 140.726562 C 138.050781 142.539062 139.339844 144.367188 141.238281 146.207031 C 141.359375 146.332031 141.484375 146.472656 141.605469 146.625 C 141.699219 146.6875 141.746094 146.761719 141.746094 146.855469 C 141.957031 146.980469 142.171875 147.148438 142.386719 147.359375 L 142.480469 147.453125 L 142.386719 147.453125 C 142.726562 147.820312 143.136719 148.207031 143.628906 148.605469 L 145.238281 150.035156 C 145.480469 150.28125 145.773438 150.585938 146.109375 150.957031 C 146.292969 151.078125 146.488281 151.296875 146.707031 151.601562 C 147.535156 152.488281 148.820312 154.058594 150.5625 156.300781 L 157.273438 164.636719 C 158.722656 166.421875 160.109375 168.074219 161.433594 169.589844 C 162.824219 171.191406 164.148438 172.640625 165.40625 173.945312 L 166.507812 175.097656 C 166.578125 175.160156 166.648438 175.222656 166.710938 175.28125 L 166.964844 175.539062 C 166.984375 175.546875 167.003906 175.5625 167.011719 175.582031 C 167.03125 175.585938 167.046875 175.59375 167.054688 175.605469 C 167.121094 175.667969 167.183594 175.714844 167.242188 175.742188 C 167.394531 175.867188 167.546875 176.003906 167.703125 176.15625 L 168.203125 176.664062 C 168.574219 177.003906 168.925781 177.328125 169.261719 177.632812 C 170.242188 178.582031 171.742188 179.136719 173.765625 179.292969 C 174.257812 179.292969 174.945312 179.292969 175.832031 179.292969 C 175.496094 178.921875 175.128906 178.523438 174.730469 178.09375 C 170.59375 173.390625 168.527344 169.554688 168.527344 166.574219 C 168.527344 166.054688 168.621094 165.640625 168.804688 165.328125 C 169.109375 164.867188 169.691406 164.332031 170.546875 163.71875 C 170.867188 163.71875 171.195312 163.722656 171.535156 163.742188 C 174.667969 163.960938 178.628906 165.167969 183.414062 167.359375 C 184.148438 168.742188 185.695312 171.210938 188.054688 174.773438 C 188.851562 176.035156 189.585938 177.15625 190.257812 178.140625 Z M 150.378906 79.359375 C 150.378906 79.386719 149.355469 79.128906 147.304688 78.574219 C 144.941406 77.773438 142.386719 75.59375 139.632812 72.03125 C 138.46875 69.882812 137.5625 67.578125 136.921875 65.117188 C 136.707031 64.476562 136.535156 63.832031 136.414062 63.1875 L 141.605469 58.578125 C 141.269531 59.160156 140.996094 59.746094 140.78125 60.328125 C 139.738281 62.96875 140.058594 65.6875 141.746094 68.484375 C 142.664062 70.019531 143.839844 71.308594 145.28125 72.355469 C 146.78125 73.492188 148.375 74.273438 150.0625 74.703125 C 153.886719 75.777344 157.515625 76.332031 160.949219 76.363281 C 161.710938 76.363281 162.480469 76.347656 163.246094 76.316406 C 167.351562 76.007812 170.855469 74.949219 173.765625 73.140625 C 173.832031 73.09375 173.902344 73.054688 173.972656 73.023438 C 174.171875 73.125 174.382812 73.226562 174.59375 73.324219 C 175.277344 73.636719 175.96875 73.902344 176.660156 74.128906 C 174.171875 76.53125 171.277344 78.273438 167.976562 79.359375 C 163.933594 80.371094 159.84375 80.707031 155.710938 80.371094 C 153.839844 80.246094 152.019531 79.863281 150.246094 79.21875 Z M 198.941406 87.742188 C 198.820312 87.621094 198.714844 87.511719 198.621094 87.421875 L 198.253906 86.914062 C 198.222656 86.851562 198.175781 86.804688 198.113281 86.773438 C 198.023438 86.683594 197.917969 86.589844 197.792969 86.5 C 197.671875 86.375 197.566406 86.25 197.472656 86.128906 C 197.105469 85.699219 196.722656 85.269531 196.324219 84.839844 L 195.082031 83.085938 C 194.777344 82.75 194.515625 82.398438 194.300781 82.03125 C 191.875 78.261719 190.644531 74.398438 190.601562 70.441406 C 193.007812 68.3125 194.207031 66.816406 194.207031 65.949219 C 193.902344 64.445312 193.75 63.476562 193.75 63.046875 C 193.75 62.679688 193.613281 62.339844 193.335938 62.035156 C 193.152344 61.796875 192.914062 61.628906 192.625 61.527344 C 192.628906 61.285156 192.636719 61.085938 192.648438 60.929688 C 192.832031 59.730469 193.308594 58.808594 194.074219 58.164062 C 194.871094 66.640625 195.390625 71.628906 195.632812 73.140625 C 196.277344 77.714844 197.105469 81.785156 198.113281 85.347656 C 198.207031 85.472656 198.269531 85.640625 198.296875 85.851562 C 198.511719 86.5 198.726562 87.125 198.941406 87.742188 Z M 203.167969 101.746094 L 205.144531 105.433594 C 205.359375 105.773438 205.574219 106.125 205.789062 106.496094 C 205.449219 107.417969 205.113281 108.398438 204.777344 109.445312 C 202.570312 115.832031 201.46875 121.085938 201.46875 125.203125 C 201.46875 126.367188 202.113281 129.761719 203.398438 135.382812 C 203.308594 135.292969 203.230469 135.210938 203.167969 135.152344 L 202.570312 134.324219 C 199.171875 129.898438 196.964844 126.953125 195.957031 125.476562 C 193.566406 122.066406 191.714844 118.902344 190.398438 115.988281 C 191.222656 114.851562 192.296875 113.683594 193.613281 112.484375 C 194.378906 111.714844 195.558594 110.640625 197.148438 109.261719 C 197.761719 108.738281 198.296875 108.277344 198.757812 107.878906 C 199.796875 106.742188 200.703125 105.695312 201.46875 104.742188 L 203.167969 101.746094 "/>
<path style=" stroke:none;fill-rule:evenodd;fill:rgb(0%,77.648926%,70.588684%);fill-opacity:1;" d="M 176.660156 74.128906 C 175.96875 73.902344 175.277344 73.636719 174.59375 73.324219 C 174.59375 73.054688 174.59375 72.820312 174.59375 72.605469 C 174.59375 72.070312 174.59375 71.71875 174.59375 71.546875 C 174.59375 71.488281 174.59375 71.449219 174.59375 71.433594 C 174.59375 68.113281 171.546875 63.292969 165.453125 56.964844 C 164.992188 56.503906 164.546875 56.058594 164.117188 55.628906 C 164.488281 55.292969 164.761719 54.96875 164.945312 54.664062 C 165.195312 54.121094 165.480469 53.738281 165.796875 53.511719 C 166.039062 53.328125 166.308594 53.25 166.597656 53.28125 C 167.210938 53.339844 167.992188 53.800781 168.941406 54.664062 C 169.898438 55.535156 170.777344 56.324219 171.582031 57.035156 C 171.699219 57.136719 171.816406 57.234375 171.925781 57.332031 C 174.703125 59.773438 176.539062 61.203125 177.441406 61.621094 C 179.066406 62.355469 182.527344 62.726562 187.824219 62.726562 C 188.28125 62.726562 188.835938 62.507812 189.476562 62.082031 C 190.183594 61.621094 190.964844 61.390625 191.820312 61.390625 C 192.125 61.390625 192.394531 61.433594 192.625 61.527344 C 192.914062 61.628906 193.152344 61.796875 193.335938 62.035156 C 193.613281 62.339844 193.75 62.679688 193.75 63.046875 C 193.75 63.476562 193.902344 64.445312 194.207031 65.949219 C 194.207031 66.816406 193.007812 68.3125 190.601562 70.441406 C 190.449219 70.585938 190.289062 70.734375 190.121094 70.878906 C 187.027344 73.582031 184.226562 74.933594 181.714844 74.933594 C 180.019531 74.933594 178.335938 74.664062 176.660156 74.128906 Z M 253.542969 199.378906 C 254.808594 201.902344 255.628906 204.757812 256 207.949219 C 256.460938 211.625 256.292969 215.664062 255.496094 220.066406 C 255.339844 220.957031 255.15625 221.863281 254.945312 222.785156 C 254.5 224.941406 254.1875 227.476562 254.003906 230.386719 C 253.867188 232.507812 253.796875 234.828125 253.796875 237.34375 C 253.796875 238.160156 253.796875 238.941406 253.796875 239.695312 C 253.78125 244.472656 253.710938 247.96875 253.589844 250.175781 C 253.558594 250.859375 253.519531 251.417969 253.472656 251.859375 C 253.566406 254.652344 253.460938 258.058594 253.15625 262.085938 C 253.097656 263.496094 253 265.292969 252.855469 267.476562 C 252.761719 268.921875 252.644531 270.535156 252.507812 272.3125 C 252.457031 273.230469 252.421875 274.128906 252.394531 275.011719 C 252.304688 277.308594 252.28125 279.484375 252.324219 281.527344 C 251.898438 285.703125 247.546875 286.65625 239.277344 284.386719 C 239.242188 283.578125 239.222656 282.988281 239.210938 282.613281 C 239.191406 282.328125 239.1875 282.164062 239.1875 282.125 C 238.605469 280.46875 238.023438 279.210938 237.441406 278.351562 C 237.367188 277.75 237.28125 277.136719 237.191406 276.507812 C 236.726562 273.566406 236.03125 270.265625 235.097656 266.601562 C 234.578125 264.707031 234.117188 263.046875 233.71875 261.601562 C 233.289062 259.996094 232.9375 258.667969 232.664062 257.617188 C 232.226562 255.792969 231.855469 254.089844 231.5625 252.503906 C 231.289062 251.101562 231.074219 249.800781 230.917969 248.585938 C 230.609375 247.757812 230.335938 246.960938 230.089844 246.1875 L 230.136719 246.234375 C 231.09375 245.265625 231.980469 244.058594 232.800781 242.617188 C 234.332031 239.917969 235.621094 236.394531 236.660156 232.046875 C 236.710938 231.648438 236.765625 231.253906 236.820312 230.871094 C 238.246094 219.914062 238.957031 214.316406 238.957031 214.078125 C 238.957031 213.339844 238.683594 212.019531 238.128906 210.113281 C 237.964844 209.53125 237.828125 209.003906 237.71875 208.523438 C 237.441406 207.429688 237.304688 206.625 237.304688 206.105469 C 237.304688 199.992188 239.433594 195.628906 243.691406 193.019531 C 244.671875 192.4375 245.496094 191.792969 246.171875 191.085938 C 247.332031 192.191406 248.652344 193.296875 250.121094 194.402344 C 251.496094 195.886719 252.636719 197.546875 253.542969 199.378906 Z M 216.949219 205.601562 C 216.984375 205.691406 217.042969 205.753906 217.132812 205.785156 C 219.523438 207.777344 221.589844 209.761719 223.335938 211.726562 C 224.382812 212.863281 225.34375 214.015625 226.207031 215.183594 C 226.886719 216.09375 227.507812 217.015625 228.070312 217.945312 C 228.683594 218.929688 229.199219 219.941406 229.632812 220.988281 C 230.304688 223.167969 230.628906 225.5625 230.597656 228.175781 C 230.457031 230.375 230.023438 232.726562 229.285156 235.226562 C 229.050781 236.039062 228.785156 236.867188 228.484375 237.710938 C 228.390625 238.019531 228.28125 238.296875 228.160156 238.542969 C 227.960938 240.65625 227.824219 242.992188 227.746094 245.542969 C 227.6875 247.328125 227.65625 249.214844 227.65625 251.214844 C 227.65625 251.597656 227.679688 252.765625 227.726562 254.710938 C 227.78125 256.816406 227.863281 259.828125 227.976562 263.742188 C 228.03125 264.105469 228.085938 264.460938 228.136719 264.804688 C 229.097656 271.40625 229.894531 276.578125 230.527344 280.332031 C 230.875 282.359375 231.175781 283.972656 231.421875 285.167969 C 231.523438 285.707031 231.652344 286.277344 231.8125 286.875 C 231.84375 287.023438 231.886719 287.179688 231.929688 287.335938 L 235.097656 299.773438 C 233.613281 301.371094 231.878906 302.289062 229.882812 302.539062 C 226.851562 302.929688 223.230469 301.761719 219.019531 299.035156 L 219.019531 298.851562 C 218.195312 295.65625 217.160156 292.285156 215.917969 288.738281 C 215.085938 286.355469 214.160156 283.890625 213.136719 281.34375 C 212.4375 279.472656 211.582031 277.332031 210.566406 274.917969 C 209.28125 271.820312 207.730469 268.28125 205.925781 264.296875 C 204.640625 260.363281 203.902344 256.21875 203.71875 251.859375 C 203.691406 251.253906 203.671875 250.652344 203.671875 250.0625 C 203.621094 246.375 203.984375 242.75 204.777344 239.1875 C 204.902344 238.082031 205.511719 236.730469 206.613281 235.132812 C 207.835938 233.410156 208.558594 232.074219 208.773438 231.125 C 207.324219 230.09375 205.714844 229.074219 203.949219 228.0625 C 201.59375 226.699219 198.964844 225.359375 196.046875 224.03125 C 194.851562 223.476562 193.058594 222.570312 190.671875 221.308594 C 191.160156 216.519531 191.546875 214 191.820312 213.753906 C 192.34375 213.015625 194.207031 212.339844 197.425781 211.726562 C 203.308594 210.621094 206.550781 209.976562 207.167969 209.789062 C 208.269531 209.546875 209.308594 209.269531 210.289062 208.960938 C 211.207031 208.625 212.097656 208.285156 212.957031 207.949219 C 214.484375 207.242188 215.820312 206.457031 216.949219 205.601562 Z M 196.046875 147.914062 C 190.726562 148.984375 187.039062 151.671875 184.972656 155.976562 C 183.660156 158.703125 183 162.082031 183 166.113281 C 183 166.296875 183.136719 166.710938 183.414062 167.359375 C 178.628906 165.167969 174.667969 163.960938 171.535156 163.742188 C 171.195312 163.722656 170.867188 163.71875 170.546875 163.71875 C 169.691406 164.332031 169.109375 164.867188 168.804688 165.328125 C 168.621094 165.640625 168.527344 166.054688 168.527344 166.574219 C 168.527344 169.554688 170.59375 173.390625 174.730469 178.09375 C 175.128906 178.523438 175.496094 178.921875 175.832031 179.292969 C 174.945312 179.292969 174.257812 179.292969 173.765625 179.292969 C 171.742188 179.136719 170.242188 178.582031 169.261719 177.632812 C 168.925781 177.328125 168.574219 177.003906 168.203125 176.664062 L 167.703125 176.15625 C 167.546875 176.003906 167.394531 175.867188 167.242188 175.742188 C 167.183594 175.714844 167.121094 175.667969 167.054688 175.605469 C 167.046875 175.59375 167.03125 175.585938 167.011719 175.582031 C 167.003906 175.5625 166.984375 175.546875 166.964844 175.539062 L 166.710938 175.28125 C 166.648438 175.222656 166.578125 175.160156 166.507812 175.097656 L 165.40625 173.945312 C 164.148438 172.640625 162.824219 171.191406 161.433594 169.589844 C 160.109375 168.074219 158.722656 166.421875 157.273438 164.636719 L 150.5625 156.300781 C 148.820312 154.058594 147.535156 152.488281 146.707031 151.601562 C 150.199219 152.800781 154.316406 153.398438 159.0625 153.398438 C 169.417969 153.398438 178.542969 150.355469 186.445312 144.277344 C 189.753906 141.816406 192.203125 139.515625 193.796875 137.363281 C 194.011719 138.007812 194.179688 138.640625 194.300781 139.253906 C 194.914062 141.097656 195.496094 143.984375 196.046875 147.914062 Z M 136.414062 63.1875 C 136.535156 63.832031 136.707031 64.476562 136.921875 65.117188 C 137.5625 67.578125 138.46875 69.882812 139.632812 72.03125 C 137.730469 71.355469 135.710938 70.835938 133.566406 70.464844 C 132.585938 70.34375 131.589844 70.234375 130.578125 70.144531 C 131.804688 68.730469 133.246094 66.949219 134.898438 64.796875 C 135.421875 64.246094 135.921875 63.707031 136.414062 63.1875 Z M 164.441406 188.367188 C 163.644531 187.507812 162.800781 186.617188 161.914062 185.695312 L 160.582031 184.449219 C 160.367188 184.238281 160.152344 184.050781 159.9375 183.898438 C 159.628906 183.683594 159.339844 183.484375 159.0625 183.296875 L 155.804688 180.722656 C 154.597656 179.882812 152.484375 178.484375 149.460938 176.527344 C 148.480469 175.894531 147.414062 175.203125 146.246094 174.453125 C 144.867188 173.5 143.582031 172.625 142.386719 171.828125 C 140.152344 170.355469 138.328125 169.015625 136.921875 167.820312 C 133.644531 165.207031 130.960938 162.488281 128.882812 159.664062 C 128.449219 159.109375 126.828125 157.328125 124.011719 154.320312 C 122.050781 152.199219 120.503906 150.386719 119.371094 148.882812 C 118.726562 145.78125 118.863281 141.789062 119.78125 136.902344 C 120.304688 134.324219 120.6875 132.371094 120.929688 131.050781 C 121.363281 128.71875 121.621094 126.75 121.714844 125.15625 C 122.171875 122.695312 122.558594 119.289062 122.863281 114.925781 C 123.199219 110.164062 123.550781 106.785156 123.917969 104.789062 C 124.253906 103.101562 124.421875 101.074219 124.421875 98.710938 C 124.421875 95.972656 124.46875 93.914062 124.5625 92.53125 C 124.5625 87.3125 125.160156 83.257812 126.355469 80.371094 C 127.027344 79.265625 127.882812 77.929688 128.929688 76.363281 C 130.210938 74.671875 131.160156 73.398438 131.773438 72.539062 C 136.828125 75.640625 141.054688 79.097656 144.453125 82.902344 C 144.636719 83.027344 144.792969 83.179688 144.914062 83.363281 C 144.914062 83.398438 144.976562 83.457031 145.097656 83.546875 C 145.191406 83.671875 145.296875 83.824219 145.421875 84.007812 C 147.867188 86.835938 149.800781 89.847656 151.210938 93.039062 C 149.339844 93.933594 147.347656 95.390625 145.238281 97.417969 C 136.199219 106.417969 131.683594 118.566406 131.683594 133.863281 C 131.253906 135.246094 131.039062 136.671875 131.039062 138.144531 C 131.039062 139.191406 132.632812 141.910156 135.820312 146.300781 C 139.246094 151.03125 143.152344 155.746094 147.535156 160.449219 C 151.515625 164.738281 155.230469 168.324219 158.675781 171.203125 C 162 173.980469 165.066406 176.089844 167.886719 177.539062 Z M 208.496094 142.339844 C 207.210938 140.398438 205.507812 138.078125 203.398438 135.382812 C 202.113281 129.761719 201.46875 126.367188 201.46875 125.203125 C 201.46875 121.085938 202.570312 115.832031 204.777344 109.445312 C 205.113281 108.398438 205.449219 107.417969 205.789062 106.496094 C 208.757812 112.113281 211.808594 118.503906 214.929688 125.664062 C 215.285156 126.53125 217.695312 132.304688 222.164062 142.984375 C 223.066406 145.144531 224.054688 147.511719 225.128906 150.082031 L 213.78125 153.121094 C 212.738281 149.894531 211.179688 146.609375 209.09375 143.261719 C 208.90625 142.964844 208.710938 142.660156 208.496094 142.339844 Z M 198.941406 87.742188 C 201.148438 90.84375 202.523438 93.054688 203.078125 94.375 C 204.210938 97.113281 204.242188 99.566406 203.167969 101.746094 L 201.46875 104.742188 C 200.703125 105.695312 199.796875 106.742188 198.757812 107.878906 C 194.132812 109.011719 188.417969 111.191406 181.621094 114.417969 C 172.675781 118.597656 166.230469 120.683594 162.277344 120.683594 C 160.628906 120.683594 158.683594 119.839844 156.445312 118.152344 C 154.210938 116.492188 153.089844 115.066406 153.089844 113.867188 C 153.089844 112.332031 153.859375 109.308594 155.386719 104.789062 C 156.859375 100.304688 157.59375 97.25 157.59375 95.621094 C 157.59375 89.324219 155.191406 83.902344 150.378906 79.359375 L 150.246094 79.21875 C 152.019531 79.863281 153.839844 80.246094 155.710938 80.371094 C 159.84375 80.707031 163.933594 80.371094 167.976562 79.359375 C 172.324219 81.847656 179.308594 83.085938 188.925781 83.085938 C 190.640625 83.085938 192.433594 82.734375 194.300781 82.03125 C 194.515625 82.398438 194.777344 82.75 195.082031 83.085938 L 196.324219 84.839844 C 196.722656 85.269531 197.105469 85.699219 197.472656 86.128906 C 197.566406 86.25 197.671875 86.375 197.792969 86.5 C 197.917969 86.589844 198.023438 86.683594 198.113281 86.773438 C 198.175781 86.804688 198.222656 86.851562 198.253906 86.914062 L 198.621094 87.421875 C 198.714844 87.511719 198.820312 87.621094 198.941406 87.742188 Z M 197.566406 41.207031 C 196.828125 40.042969 195.957031 39.011719 194.945312 38.121094 C 191.296875 34.742188 183.429688 30.488281 171.332031 25.359375 C 168.222656 24.050781 166.074219 22.054688 164.878906 19.371094 C 164.839844 19.28125 164.800781 19.1875 164.761719 19.09375 C 164.621094 18.496094 164.480469 17.925781 164.347656 17.390625 C 163.847656 15.347656 163.425781 13.757812 163.082031 12.621094 C 163.027344 12.449219 162.972656 12.289062 162.925781 12.132812 C 166.75 9.585938 170.640625 8.738281 174.59375 9.601562 C 185.769531 9.722656 193.324219 12.75 197.242188 18.679688 C 199.386719 21.84375 200.457031 26.355469 200.457031 32.222656 C 200.457031 35.402344 199.863281 37.921875 198.667969 39.777344 C 198.492188 40.039062 198.308594 40.28125 198.113281 40.515625 C 197.960938 40.734375 197.78125 40.960938 197.566406 41.207031 "/>
<path style=" stroke:none;fill-rule:evenodd;fill:rgb(0%,53.729248%,58.81958%);fill-opacity:1;" d="M 174.59375 73.324219 C 174.382812 73.226562 174.171875 73.125 173.972656 73.023438 C 171.605469 71.8125 169.234375 70.039062 166.875 67.699219 C 162.738281 63.648438 160.671875 60.761719 160.671875 59.039062 C 160.671875 58.589844 160.863281 58.160156 161.246094 57.746094 C 161.496094 57.476562 161.828125 57.21875 162.234375 56.964844 C 162.265625 56.964844 162.277344 56.949219 162.277344 56.917969 C 162.339844 56.859375 162.386719 56.824219 162.417969 56.824219 C 163.121094 56.398438 163.691406 55.996094 164.117188 55.628906 C 164.546875 56.058594 164.992188 56.503906 165.453125 56.964844 C 171.546875 63.292969 174.59375 68.113281 174.59375 71.433594 C 174.59375 71.449219 174.59375 71.488281 174.59375 71.546875 C 174.59375 71.71875 174.59375 72.070312 174.59375 72.605469 C 174.59375 72.820312 174.59375 73.054688 174.59375 73.324219 Z M 194.300781 82.03125 C 192.433594 82.734375 190.640625 83.085938 188.925781 83.085938 C 179.308594 83.085938 172.324219 81.847656 167.976562 79.359375 C 171.277344 78.273438 174.171875 76.53125 176.660156 74.128906 C 178.335938 74.664062 180.019531 74.933594 181.714844 74.933594 C 184.226562 74.933594 187.027344 73.582031 190.121094 70.878906 C 190.289062 70.734375 190.449219 70.585938 190.601562 70.441406 C 190.644531 74.398438 191.875 78.261719 194.300781 82.03125 Z M 229.609375 244.460938 L 228.484375 237.710938 C 228.785156 236.867188 229.050781 236.039062 229.285156 235.226562 C 230.023438 232.726562 230.457031 230.375 230.597656 228.175781 C 230.628906 225.5625 230.304688 223.167969 229.632812 220.988281 C 230.304688 219.085938 231.253906 217.332031 232.480469 215.738281 C 232.339844 214.460938 231.589844 213.5 230.226562 212.855469 C 230.085938 212.78125 229.933594 212.714844 229.765625 212.648438 C 228.820312 212.308594 227.335938 212.03125 225.3125 211.820312 C 224.699219 211.757812 224.042969 211.726562 223.335938 211.726562 C 221.589844 209.761719 219.523438 207.777344 217.132812 205.785156 C 217.042969 205.753906 216.984375 205.691406 216.949219 205.601562 C 215.726562 204.613281 214.179688 203.433594 212.308594 202.050781 C 212.402344 201.957031 212.511719 201.867188 212.632812 201.773438 L 241.441406 185.1875 C 241.804688 185.742188 242.15625 186.265625 242.496094 186.753906 C 243.507812 188.167969 244.730469 189.613281 246.171875 191.085938 C 245.496094 191.792969 244.671875 192.4375 243.691406 193.019531 C 239.433594 195.628906 237.304688 199.992188 237.304688 206.105469 C 237.304688 206.625 237.441406 207.429688 237.71875 208.523438 C 237.828125 209.003906 237.964844 209.53125 238.128906 210.113281 C 238.683594 212.019531 238.957031 213.339844 238.957031 214.078125 C 238.957031 214.316406 238.246094 219.914062 236.820312 230.871094 C 236.765625 231.253906 236.710938 231.648438 236.660156 232.046875 C 235.621094 236.394531 234.332031 239.917969 232.800781 242.617188 C 231.980469 244.058594 231.09375 245.265625 230.136719 246.234375 L 230.089844 246.1875 L 229.90625 245.453125 C 229.8125 245.175781 229.722656 244.886719 229.632812 244.578125 Z M 216.632812 162.9375 L 190.257812 178.140625 C 189.585938 177.15625 188.851562 176.035156 188.054688 174.773438 C 185.695312 171.210938 184.148438 168.742188 183.414062 167.359375 C 183.136719 166.710938 183 166.296875 183 166.113281 C 183 162.082031 183.660156 158.703125 184.972656 155.976562 C 187.039062 151.671875 190.726562 148.984375 196.046875 147.914062 C 196.914062 147.808594 197.847656 147.8125 198.851562 147.9375 C 200.699219 148.144531 202.78125 148.738281 205.097656 149.710938 C 205.984375 150.109375 207.429688 150.773438 209.417969 151.695312 C 211.070312 152.398438 212.523438 152.875 213.78125 153.121094 C 213.875 153.519531 214.089844 154.378906 214.421875 155.699219 L 214.46875 155.929688 C 214.46875 156.054688 214.515625 156.175781 214.605469 156.300781 C 214.820312 157.070312 214.992188 157.714844 215.113281 158.234375 C 215.265625 159.921875 215.773438 161.492188 216.632812 162.9375 Z M 140.273438 138.835938 C 140.394531 136.226562 140.503906 134.246094 140.597656 132.894531 C 140.597656 130.621094 140.320312 128.699219 139.765625 127.136719 C 140.960938 118.226562 142.109375 110.949219 143.214844 105.296875 C 145.878906 105.296875 148.222656 104.621094 150.246094 103.269531 C 152.480469 101.609375 153.304688 99.539062 152.722656 97.050781 C 152.722656 96.867188 152.679688 96.757812 152.589844 96.726562 L 152.589844 96.589844 C 152.433594 96.128906 152.28125 95.683594 152.128906 95.253906 L 151.941406 94.792969 C 151.730469 94.179688 151.484375 93.59375 151.210938 93.039062 C 149.800781 89.847656 147.867188 86.835938 145.421875 84.007812 C 145.296875 83.824219 145.191406 83.671875 145.097656 83.546875 C 144.976562 83.457031 144.914062 83.398438 144.914062 83.363281 C 144.792969 83.179688 144.636719 83.027344 144.453125 82.902344 C 141.054688 79.097656 136.828125 75.640625 131.773438 72.539062 C 131.160156 73.398438 130.210938 74.671875 128.929688 76.363281 C 127.882812 77.929688 127.027344 79.265625 126.355469 80.371094 C 126.355469 78.773438 126.585938 77.265625 127.042969 75.855469 C 127.46875 74.378906 128.191406 73.09375 129.199219 71.988281 C 129.570312 71.460938 130.03125 70.847656 130.578125 70.144531 C 131.589844 70.234375 132.585938 70.34375 133.566406 70.464844 C 135.710938 70.835938 137.730469 71.355469 139.632812 72.03125 C 142.386719 75.59375 144.941406 77.773438 147.304688 78.574219 C 149.355469 79.128906 150.378906 79.386719 150.378906 79.359375 C 155.191406 83.902344 157.59375 89.324219 157.59375 95.621094 C 157.59375 97.25 156.859375 100.304688 155.386719 104.789062 C 153.859375 109.308594 153.089844 112.332031 153.089844 113.867188 C 153.089844 115.066406 154.210938 116.492188 156.445312 118.152344 C 158.683594 119.839844 160.628906 120.683594 162.277344 120.683594 C 166.230469 120.683594 172.675781 118.597656 181.621094 114.417969 C 188.417969 111.191406 194.132812 109.011719 198.757812 107.878906 C 198.296875 108.277344 197.761719 108.738281 197.148438 109.261719 C 195.558594 110.640625 194.378906 111.714844 193.613281 112.484375 C 192.296875 113.683594 191.222656 114.851562 190.398438 115.988281 C 190.183594 117.953125 190.074219 120.578125 190.074219 123.863281 C 190.074219 127.859375 190.027344 130.53125 189.9375 131.882812 C 187.917969 137.65625 183.582031 141.988281 176.933594 144.875 C 171.390625 147.238281 165.15625 148.316406 158.238281 148.097656 C 153.886719 148.191406 150.246094 147.671875 147.304688 146.53125 C 143.257812 144.90625 140.914062 142.339844 140.273438 138.835938 Z M 133.0625 185.558594 C 131.621094 181.996094 130.410156 178.25 129.429688 174.3125 L 129.386719 174.175781 C 129.386719 174.023438 129.339844 173.839844 129.246094 173.621094 C 128.484375 169.046875 128.359375 164.5 128.882812 159.988281 C 128.882812 159.863281 128.882812 159.757812 128.882812 159.664062 C 130.960938 162.488281 133.644531 165.207031 136.921875 167.820312 C 138.328125 169.015625 140.152344 170.355469 142.386719 171.828125 C 143.582031 172.625 144.867188 173.5 146.246094 174.453125 C 147.414062 175.203125 148.480469 175.894531 149.460938 176.527344 C 152.484375 178.484375 154.597656 179.882812 155.804688 180.722656 L 159.0625 183.296875 C 159.339844 183.484375 159.628906 183.683594 159.9375 183.898438 C 160.152344 184.050781 160.367188 184.238281 160.582031 184.449219 L 161.914062 185.695312 C 162.800781 186.617188 163.644531 187.507812 164.441406 188.367188 C 164.347656 188.488281 164.304688 188.597656 164.304688 188.691406 C 164.175781 188.90625 164.089844 189.089844 164.027344 189.246094 C 163.75 189.980469 163.535156 190.703125 163.382812 191.40625 L 163.0625 192.46875 C 162.96875 192.835938 162.90625 193.191406 162.878906 193.527344 C 162.785156 193.988281 162.738281 194.476562 162.738281 195.003906 C 162.617188 195.738281 162.570312 196.492188 162.601562 197.261719 C 162.570312 197.351562 162.570312 197.457031 162.601562 197.582031 C 162.601562 197.917969 162.601562 198.304688 162.601562 198.734375 L 162.601562 198.875 C 162.90625 202.679688 164.117188 205.980469 166.230469 208.777344 C 167.394531 209.667969 168.925781 210.574219 170.824219 211.496094 C 171.898438 212.050781 173.507812 212.863281 175.648438 213.9375 C 174.148438 215.136719 172.617188 215.875 171.054688 216.152344 C 169.15625 216.484375 167.453125 216.164062 165.953125 215.183594 C 161.359375 213.800781 156.796875 211.390625 152.265625 207.949219 C 148.773438 205.339844 144.839844 201.820312 140.457031 197.398438 C 139.996094 196.847656 139.476562 196.214844 138.894531 195.507812 C 138.894531 195.445312 138.867188 195.417969 138.804688 195.417969 C 138.804688 195.324219 138.773438 195.25 138.710938 195.1875 C 138.617188 195.09375 138.558594 194.984375 138.527344 194.863281 C 138.4375 194.742188 138.328125 194.632812 138.207031 194.542969 C 138.207031 194.449219 138.160156 194.386719 138.070312 194.355469 C 137.976562 194.171875 137.914062 194.015625 137.886719 193.894531 C 136.0625 191.421875 134.507812 188.765625 133.21875 185.925781 C 133.171875 185.804688 133.117188 185.679688 133.0625 185.558594 Z M 154.007812 21.625 C 155.078125 19.945312 156.269531 18.351562 157.59375 16.835938 C 157.992188 16.402344 158.375 16.007812 158.742188 15.636719 C 160 14.320312 161.269531 13.230469 162.554688 12.363281 C 162.675781 12.289062 162.800781 12.214844 162.925781 12.132812 C 162.972656 12.289062 163.027344 12.449219 163.082031 12.621094 C 163.425781 13.757812 163.847656 15.347656 164.347656 17.390625 C 164.480469 17.925781 164.621094 18.496094 164.761719 19.09375 C 164.800781 19.1875 164.839844 19.28125 164.878906 19.371094 C 166.074219 22.054688 168.222656 24.050781 171.332031 25.359375 C 183.429688 30.488281 191.296875 34.742188 194.945312 38.121094 C 195.957031 39.011719 196.828125 40.042969 197.566406 41.207031 C 197.464844 41.308594 197.355469 41.398438 197.242188 41.484375 C 197.15625 41.566406 197.066406 41.644531 196.964844 41.714844 L 195.679688 42.820312 C 195.1875 43.125 194.667969 43.449219 194.121094 43.789062 L 194.121094 43.742188 C 190.167969 45.890625 184.4375 46.964844 176.933594 46.964844 C 173.136719 46.964844 168.285156 45.476562 162.371094 42.5 C 160.164062 41.414062 158.273438 40.261719 156.699219 39.042969 C 153.296875 36.40625 151.378906 33.457031 150.933594 30.195312 C 150.871094 29.714844 150.839844 29.226562 150.839844 28.722656 C 150.839844 27.832031 151.441406 26.246094 152.632812 23.976562 C 153.066406 23.175781 153.523438 22.390625 154.007812 21.625 "/>
<path style=" stroke:none;fill-rule:evenodd;fill:rgb(27.059937%,13.729858%,7.058716%);fill-opacity:1;" d="M 154.007812 21.625 C 153.523438 22.390625 153.066406 23.175781 152.632812 23.976562 C 151.441406 26.246094 150.839844 27.832031 150.839844 28.722656 C 150.839844 29.226562 150.871094 29.714844 150.933594 30.195312 C 150.421875 31.273438 150.023438 32.300781 149.738281 33.285156 C 149.308594 34.820312 149.203125 37.246094 149.414062 40.5625 C 149.324219 41.328125 149.109375 42.039062 148.773438 42.683594 C 148.742188 42.527344 148.726562 42.421875 148.726562 42.359375 L 147.765625 39.917969 C 147.765625 39.886719 147.71875 39.824219 147.625 39.734375 C 147.625 39.609375 147.59375 39.457031 147.535156 39.273438 C 145.480469 40.257812 143.65625 41.742188 142.0625 43.742188 C 141.394531 43.988281 140.382812 44.003906 139.035156 43.789062 L 137.929688 43.742188 C 137.808594 43.742188 137.699219 43.742188 137.609375 43.742188 C 137.609375 42.082031 137.609375 41.238281 137.609375 41.207031 C 137.609375 29.84375 141.484375 20.921875 149.230469 14.4375 C 152.144531 11.984375 154.804688 10.675781 157.226562 10.523438 C 158.941406 10.460938 160.0625 11.105469 160.582031 12.457031 C 160.488281 12.457031 160.398438 12.457031 160.304688 12.457031 L 160.121094 12.640625 C 158.5625 13.285156 157.226562 14.347656 156.125 15.820312 L 156.125 15.960938 L 156.035156 15.960938 L 156.035156 16.007812 L 155.941406 16.144531 C 154.699219 17.859375 154.050781 19.6875 154.007812 21.625 Z M 171.582031 57.035156 C 170.777344 56.324219 169.898438 55.535156 168.941406 54.664062 C 167.992188 53.800781 167.210938 53.339844 166.597656 53.28125 C 166.308594 53.25 166.039062 53.328125 165.796875 53.511719 C 165.667969 53.363281 165.550781 53.226562 165.453125 53.097656 L 164.898438 52.449219 C 163.949219 51.34375 163.0625 50.578125 162.234375 50.144531 C 161.46875 49.746094 160.628906 49.5625 159.710938 49.59375 C 159.21875 48.578125 158.773438 47.425781 158.375 46.140625 C 157.71875 43.367188 157.160156 41.003906 156.699219 39.042969 C 158.273438 40.261719 160.164062 41.414062 162.371094 42.5 C 168.285156 45.476562 173.136719 46.964844 176.933594 46.964844 C 184.4375 46.964844 190.167969 45.890625 194.121094 43.742188 L 194.121094 43.789062 C 194.667969 43.449219 195.1875 43.125 195.679688 42.820312 L 196.964844 41.714844 C 197.066406 41.644531 197.15625 41.566406 197.242188 41.484375 C 197.6875 41.25 198.132812 41.007812 198.574219 40.746094 C 198.390625 42.101562 198.023438 43.328125 197.472656 44.433594 L 192.785156 48.902344 C 190.457031 50.164062 186.953125 51.222656 182.265625 52.082031 L 182.082031 52.40625 C 180.886719 54 179.171875 55.183594 176.933594 55.949219 C 175.765625 56.351562 173.980469 56.714844 171.582031 57.035156 "/>
<path style=" stroke:none;fill-rule:evenodd;fill:rgb(34.899902%,34.899902%,34.899902%);fill-opacity:1;" d="M 262.042969 166.136719 L 258.480469 172.792969 C 257.167969 175.253906 254.378906 177.707031 250.121094 180.167969 L 241.441406 185.1875 L 212.632812 201.773438 C 212.511719 201.867188 212.402344 201.957031 212.308594 202.050781 C 210.929688 202.820312 209.875 203.3125 209.140625 203.527344 C 207.761719 203.921875 207.484375 203.339844 208.316406 201.773438 L 227.105469 166.621094 C 227.199219 166.558594 227.242188 166.5 227.242188 166.4375 C 227.515625 165.914062 227.871094 165.421875 228.300781 164.960938 C 229.0625 163.917969 230.105469 162.902344 231.421875 161.921875 C 232.554688 161.03125 233.886719 160.109375 235.421875 159.15625 L 238.128906 157.636719 L 242.769531 154.941406 L 272.863281 137.5 C 277.152344 135.015625 278.636719 135.027344 277.316406 137.546875 L 262.042969 166.136719 "/>
<path style=" stroke:none;fill-rule:evenodd;fill:rgb(19.999695%,19.999695%,19.999695%);fill-opacity:1;" d="M 146.707031 151.601562 C 146.488281 151.296875 146.292969 151.078125 146.109375 150.957031 C 145.773438 150.585938 145.480469 150.28125 145.238281 150.035156 L 143.628906 148.605469 C 143.230469 148.207031 142.847656 147.820312 142.480469 147.453125 L 142.386719 147.359375 C 142.171875 147.148438 141.957031 146.980469 141.746094 146.855469 C 141.746094 146.761719 141.699219 146.6875 141.605469 146.625 C 141.484375 146.472656 141.359375 146.332031 141.238281 146.207031 C 139.339844 144.367188 138.050781 142.539062 137.378906 140.726562 C 138.328125 140.175781 139.292969 139.546875 140.273438 138.835938 C 140.914062 142.339844 143.257812 144.90625 147.304688 146.53125 C 150.246094 147.671875 153.886719 148.191406 158.238281 148.097656 C 165.15625 148.316406 171.390625 147.238281 176.933594 144.875 C 183.582031 141.988281 187.917969 137.65625 189.9375 131.882812 C 191.621094 133.140625 192.90625 134.96875 193.796875 137.363281 C 192.203125 139.515625 189.753906 141.816406 186.445312 144.277344 C 178.542969 150.355469 169.417969 153.398438 159.0625 153.398438 C 154.316406 153.398438 150.199219 152.800781 146.707031 151.601562 Z M 185.433594 180.996094 L 190.257812 178.140625 L 216.632812 162.9375 L 218.46875 161.785156 C 222.785156 159.324219 225.847656 158.621094 227.65625 159.664062 L 231.421875 161.921875 C 230.105469 162.902344 229.0625 163.917969 228.300781 164.960938 C 227.871094 165.421875 227.515625 165.914062 227.242188 166.4375 C 227.242188 166.5 227.199219 166.558594 227.105469 166.621094 L 208.316406 201.773438 C 207.484375 203.339844 207.761719 203.921875 209.140625 203.527344 C 206.660156 204.570312 204.777344 204.707031 203.492188 203.941406 L 192.925781 197.859375 C 192.402344 196.570312 191.652344 195.25 190.671875 193.894531 C 188.769531 191.53125 187.457031 189.707031 186.722656 188.414062 C 187.824219 188.96875 189.214844 190.410156 190.902344 192.742188 C 192.464844 194.800781 193.964844 196.03125 195.402344 196.429688 C 195.679688 195.292969 195.527344 194.109375 194.945312 192.882812 C 194.914062 192.757812 194.363281 191.652344 193.289062 189.566406 L 195.726562 188.046875 C 193.429688 185.585938 190.871094 183.621094 188.054688 182.144531 C 187.164062 181.71875 186.292969 181.332031 185.433594 180.996094 Z M 182.90625 191.914062 C 182.695312 191.578125 182.527344 191.269531 182.402344 190.992188 C 183.445312 191.332031 184.457031 192.066406 185.433594 193.203125 C 185.527344 193.238281 185.648438 193.40625 185.804688 193.710938 L 182.90625 191.914062 "/>
<path style=" stroke:none;fill-rule:evenodd;fill:rgb(95.289612%,95.289612%,95.289612%);fill-opacity:1;" d="M 241.851562 318.15625 C 241.394531 318.742188 240.859375 319.277344 240.246094 319.769531 C 240.859375 323.238281 241.820312 326.097656 243.136719 328.339844 C 243.507812 328.890625 243.902344 329.445312 244.332031 330 L 248.742188 334.332031 C 246.046875 331.351562 244.578125 327.695312 244.332031 323.363281 C 244.238281 321.796875 244.027344 320.257812 243.691406 318.753906 C 243.414062 317.617188 243.125 316.511719 242.816406 315.441406 C 242.878906 316.484375 242.554688 317.386719 241.851562 318.15625 Z M 250.71875 314.472656 L 255.589844 306.546875 C 257.304688 309.160156 259.109375 311.734375 261.007812 314.289062 C 262.96875 316.925781 264.929688 319.691406 266.890625 322.582031 C 268.667969 325.375 269.800781 328.429688 270.289062 331.75 C 270.6875 334.332031 269.984375 336.480469 268.175781 338.199219 C 266.828125 339.398438 265.28125 339.980469 263.535156 339.949219 C 258.453125 339.921875 253.871094 338.320312 249.800781 335.15625 C 250.5625 335.800781 251.332031 336.480469 252.097656 337.183594 C 254.824219 339.644531 256.230469 342.652344 256.324219 346.214844 C 256.324219 346.953125 256.171875 347.660156 255.863281 348.335938 C 255.375 349.5625 254.578125 350.347656 253.472656 350.6875 C 246.125 353.078125 238.867188 352.773438 231.699219 349.765625 C 229.125 348.71875 227.257812 346.90625 226.09375 344.324219 C 225.605469 343.222656 223.628906 339.367188 220.167969 332.765625 C 219.128906 330.714844 217.941406 328.417969 216.605469 325.875 C 215.585938 323.925781 214.476562 321.832031 213.273438 319.585938 C 212.726562 317.433594 212.160156 315.300781 211.578125 313.183594 C 211.269531 311.890625 211.253906 310.632812 211.53125 309.402344 C 212.511719 304.949219 215.007812 301.433594 219.019531 298.851562 L 219.019531 299.035156 C 217.425781 303.0625 217.457031 306.964844 219.109375 310.738281 C 220.71875 314.363281 222.25 318.042969 223.707031 321.773438 C 224.605469 324.078125 225.476562 326.402344 226.320312 328.753906 L 228.847656 327.140625 L 240.246094 319.769531 C 239.984375 317.433594 239.609375 315.125 239.117188 312.835938 C 238.714844 310.945312 238.234375 309.074219 237.671875 307.214844 C 237.234375 305.753906 236.742188 304.304688 236.199219 302.859375 C 235.804688 301.816406 235.433594 300.785156 235.097656 299.773438 L 231.929688 287.335938 L 237.765625 284.707031 C 235.433594 286.644531 234.636719 289.179688 235.375 292.308594 C 235.492188 292.800781 235.613281 293.292969 235.738281 293.785156 C 236.15625 295.324219 236.621094 296.851562 237.144531 298.367188 C 238 300.886719 239.011719 303.359375 240.175781 305.785156 C 240.863281 307.238281 241.605469 308.675781 242.402344 310.09375 C 242.519531 310.308594 242.636719 310.523438 242.746094 310.738281 C 243.257812 311.710938 243.722656 312.726562 244.148438 313.78125 C 245.007812 316.050781 245.96875 318.292969 247.042969 320.507812 L 250.71875 314.472656 "/>
<path style=" stroke:none;fill-rule:evenodd;fill:rgb(80.778503%,48.629761%,33.729553%);fill-opacity:1;" d="M 250.71875 314.472656 L 247.042969 320.507812 C 245.96875 318.292969 245.007812 316.050781 244.148438 313.78125 C 243.722656 312.726562 243.257812 311.710938 242.746094 310.738281 C 242.636719 310.523438 242.519531 310.308594 242.402344 310.09375 C 241.605469 308.675781 240.863281 307.238281 240.175781 305.785156 C 239.011719 303.359375 238 300.886719 237.144531 298.367188 C 236.621094 296.851562 236.15625 295.324219 235.738281 293.785156 C 235.613281 293.292969 235.492188 292.800781 235.375 292.308594 C 234.636719 289.179688 235.433594 286.644531 237.765625 284.707031 C 237.769531 284.296875 237.769531 283.871094 237.765625 283.441406 C 237.738281 281.878906 237.636719 280.179688 237.441406 278.351562 C 238.023438 279.210938 238.605469 280.46875 239.1875 282.125 C 239.1875 282.164062 239.191406 282.328125 239.210938 282.613281 C 239.222656 282.988281 239.242188 283.578125 239.277344 284.386719 C 239.371094 285.335938 239.480469 286.613281 239.601562 288.210938 C 239.671875 289.390625 239.769531 290.453125 239.898438 291.386719 C 240.054688 292.433594 240.25 293.328125 240.472656 294.0625 C 240.644531 294.691406 240.859375 295.367188 241.117188 296.089844 C 241.84375 298.164062 242.933594 300.589844 244.378906 303.367188 C 244.777344 304.136719 245.207031 304.9375 245.664062 305.765625 C 246.078125 306.496094 246.542969 307.316406 247.066406 308.230469 C 248.078125 309.976562 249.292969 312.054688 250.71875 314.472656 Z M 153.089844 49.410156 C 154.777344 50.792969 156.597656 51.484375 158.5625 51.484375 C 159.285156 53.679688 160.179688 55.769531 161.246094 57.746094 C 160.863281 58.160156 160.671875 58.589844 160.671875 59.039062 C 160.671875 60.761719 162.738281 63.648438 166.875 67.699219 C 169.234375 70.039062 171.605469 71.8125 173.972656 73.023438 C 173.902344 73.054688 173.832031 73.09375 173.765625 73.140625 C 170.855469 74.949219 167.351562 76.007812 163.246094 76.316406 C 162.480469 76.347656 161.710938 76.363281 160.949219 76.363281 C 160.949219 76.332031 160.992188 76.222656 161.085938 76.039062 C 161.332031 75.058594 161.453125 74.257812 161.453125 73.644531 C 161.453125 70.972656 160.839844 68.34375 159.617188 65.765625 C 157.441406 61.128906 153.828125 58.808594 148.773438 58.808594 C 145.988281 58.808594 143.429688 59.296875 141.101562 60.28125 C 140.976562 60.28125 140.871094 60.300781 140.78125 60.328125 C 140.996094 59.746094 141.269531 59.160156 141.605469 58.578125 C 145.925781 55.414062 149.753906 52.359375 153.089844 49.410156 "/>
<path style=" stroke:none;fill-rule:evenodd;fill:rgb(73.728943%,25.099182%,45.489502%);fill-opacity:1;" d="M 162.554688 12.363281 C 161.269531 13.230469 160 14.320312 158.742188 15.636719 C 158.375 16.007812 157.992188 16.402344 157.59375 16.835938 C 156.269531 18.351562 155.078125 19.945312 154.007812 21.625 C 154.050781 19.6875 154.699219 17.859375 155.941406 16.144531 L 156.035156 16.007812 L 156.035156 15.960938 L 156.125 15.960938 L 156.125 15.820312 C 157.226562 14.347656 158.5625 13.285156 160.121094 12.640625 C 160.242188 12.550781 160.398438 12.488281 160.582031 12.457031 L 160.765625 12.320312 C 160.980469 12.226562 161.191406 12.167969 161.40625 12.132812 L 161.453125 12.132812 C 161.820312 12.144531 162.1875 12.222656 162.554688 12.363281 Z M 129.429688 174.3125 C 130.410156 178.25 131.621094 181.996094 133.0625 185.558594 C 132.203125 183.683594 131.46875 181.734375 130.855469 179.707031 C 130.304688 177.925781 129.828125 176.128906 129.429688 174.3125 "/>
</g>
</svg>
